<svg xmlns="http://www.w3.org/2000/svg" xmlns:xlink="http://www.w3.org/1999/xlink" version="1.1" x="0px" y="0px" viewBox="0 0 64 80" enable-background="new 0 0 64 64" xml:space="preserve"><g><path d="M39.436,24.624c-6.283,0-11.394,5.112-11.394,11.394s5.11,11.394,11.394,11.394c6.281,0,11.393-5.112,11.393-11.394   S45.717,24.624,39.436,24.624z M39.436,44.723c-4.809,0-8.705-3.898-8.705-8.705s3.896-8.704,8.705-8.704   c4.807,0,8.704,3.897,8.704,8.704S44.242,44.723,39.436,44.723z"/><path d="M59.135,17.042H32v-1.024h7.436V9.009h-20.17v7.009h5.128v1.024H4.865C3.289,17.042,2,18.332,2,19.907v32.219   c0,1.575,1.289,2.865,2.865,2.865h54.27c1.576,0,2.865-1.29,2.865-2.865V19.907C62,18.332,60.711,17.042,59.135,17.042z    M12.77,51.742H5.932V49.35h6.838V51.742z M21.145,30.203H6.615v-8.032h14.53V30.203z M39.436,51.158   c-8.35,0-15.141-6.794-15.141-15.141c0-8.349,6.792-15.14,15.141-15.14c8.348,0,15.141,6.791,15.141,15.14   C54.576,44.364,47.783,51.158,39.436,51.158z"/></g><text x="0" y="79" fill="#000000" font-size="5px" font-weight="bold" font-family="'Helvetica Neue', Helvetica, Arial-Unicode, Arial, Sans-serif">Created by Creative Stall</text><text x="0" y="84" fill="#000000" font-size="5px" font-weight="bold" font-family="'Helvetica Neue', Helvetica, Arial-Unicode, Arial, Sans-serif">from the Noun Project</text></svg>