<svg xmlns="http://www.w3.org/2000/svg" xmlns:xlink="http://www.w3.org/1999/xlink" version="1.1" x="0px" y="0px" viewBox="0 0 100 125" enable-background="new 0 0 100 100" xml:space="preserve"><g><path stroke="#000000" stroke-miterlimit="10" d="M62.4,21.1c0,0,1.3,4.6,4.5,8.1c0,0,0,4.4,2,4.4c0,0,3.6,3.9,4.6,6.4   c0.6,1.3,5.4,0.8,6,0c1.5-1.3,0.5,2-2.7,7.3s-10.9,2.8-5.7,17.2c0,0-1.1,1.8-3.5,2.6c0,0-1.8,2.4-2.2,3.2c-0.5,0.8,2,2.9-1.9,4.4   c0,0-2.1,8.1-6.5,8.3s-4.4,0.2-4.4,0.2s0.1-4.2-3.3-6c0,0-2-9-3.7-9.7c-1.7-1.2,1.9-5.6,1.9-5.6s0.2-7.9-3.7-9.8   c0,0,0.7-6.3-0.8-6.1c-1.5,0.2-4-1.2-4.2-1.7s-6.2,1.5-10.4,1.9c-4.2,0.5-8-10.3-8-10.3s3-4,0.8-5.5C19,29,27.5,22,27.5,22v-1.7   l3.5-3.5c0,0,3,1.1,7.2-1.1s6.1,0,6.1,0c2,5.3,7.5,7.4,9,3.5C53.3,19.2,57.7,22,62.4,21.1z M75.4,65.6C72.7,66,73.8,70,73.8,70   c-1.7,1.9-1,2.7-1,2.7c2.7,6,4.6-3.1,4.6-3.1c2.4-5.2,1-6.9,1-6.9C77.8,63.7,75.4,65.6,75.4,65.6z M50,96C24.6,96,4,75.4,4,50   S24.6,4,50,4s46,20.6,46,46S75.4,96,50,96z M50,6C25.7,6,6,25.7,6,50s19.7,44,44,44s44-19.7,44-44S74.3,6,50,6z"/></g><text x="0" y="115" fill="#000000" font-size="5px" font-weight="bold" font-family="'Helvetica Neue', Helvetica, Arial-Unicode, Arial, Sans-serif">Created by Georgia Osinga</text><text x="0" y="120" fill="#000000" font-size="5px" font-weight="bold" font-family="'Helvetica Neue', Helvetica, Arial-Unicode, Arial, Sans-serif">from the Noun Project</text></svg>