<svg xmlns="http://www.w3.org/2000/svg" xmlns:xlink="http://www.w3.org/1999/xlink" version="1.1" x="0px" y="0px" viewBox="0 0 100 125" enable-background="new 0 0 100 100" xml:space="preserve"><g><rect x="-192" width="185" height="99"/><rect y="-36" width="100" height="30"/><text transform="matrix(1 0 0 1 66 -19.5)" fill="#000000" font-family="'Helvetica'" font-size="2.4">http://thenounproject.com</text><text transform="matrix(1 0 0 1 7.166 -24.5)"><tspan x="0" y="0" fill="#000000" font-family="'Helvetica-Bold'" font-size="6.1578">The Noun Project</tspan><tspan x="1.12" y="4.8" fill="#000000" font-family="'Helvetica-Bold'" font-size="4">Icon Template</tspan></text><text transform="matrix(1 0 0 1 -178.5 10.5)" fill="#000000" font-family="'Helvetica-Bold'" font-size="6.1578">Reminders</text><line fill="#000000" stroke="#FFFFFF" stroke-miterlimit="10" x1="8" y1="-14.5" x2="18" y2="-14.5"/><line fill="#000000" stroke="#FFFFFF" stroke-miterlimit="10" x1="-179" y1="16.5" x2="-162" y2="16.5"/><g><g><g><rect x="-170.802" y="31.318" fill="#000000" width="8.721" height="8.642"/><path fill="#000000" d="M-164.455,42.312h4.747v-4.703h-4.747V42.312z M-159.266,42.749h-5.63V37.17h5.63V42.749      L-159.266,42.749z M-166.221,44.062h8.279v-8.203h-8.279V44.062L-166.221,44.062z M-157.5,44.5h-9.163v-9.079h9.163V44.5      L-157.5,44.5z"/><polygon fill="#000000" points="-166.149,44.133 -166.292,43.991 -158.013,35.787 -157.871,35.929     "/></g></g></g><rect x="-179" y="58" fill="none" width="35" height="32.5"/><text transform="matrix(1 0 0 1 -179 60.1572)"><tspan x="0" y="0" fill="#000000" font-family="'Helvetica-Bold'" font-size="3">Strokes</tspan><tspan x="0" y="5" fill="#000000" font-family="'Helvetica'" font-size="2.4">Try to keep strokes at 4px</tspan><tspan x="0" y="10" fill="#000000" font-family="'Helvetica'" font-size="2.4">Minimum stroke weight is 2px</tspan><tspan x="0" y="14.5" fill="#000000" font-family="'Helvetica'" font-size="2.4">For thicker strokes use even </tspan><tspan x="0" y="17.5" fill="#000000" font-family="'Helvetica'" font-size="2.4">numbers: 6px, 8px etc.</tspan><tspan x="0" y="22" fill="#000000" font-family="'Helvetica-Bold'" font-size="2.4">Remember to expand strokes </tspan><tspan x="0" y="25" fill="#000000" font-family="'Helvetica-Bold'" font-size="2.4">before saving as an SVG </tspan></text><rect x="-136.5" y="58" fill="none" width="35" height="32.5"/><text transform="matrix(1 0 0 1 -136.5 60.1572)"><tspan x="0" y="0" fill="#000000" font-family="'Helvetica-Bold'" font-size="3">Size</tspan><tspan x="0" y="5" fill="#000000" font-family="'Helvetica'" font-size="2.4">Cannot be wider or taller than </tspan><tspan x="0" y="8.5" fill="#000000" font-family="'Helvetica'" font-size="2.4">100px (artboard size)</tspan><tspan x="0" y="13.5" fill="#000000" font-family="'Helvetica'" font-size="2.4">Scale your icon to fill as much of </tspan><tspan x="0" y="16.5" fill="#000000" font-family="'Helvetica'" font-size="2.4">the artboard as possible</tspan></text><rect x="-94" y="58" fill="none" width="35" height="32.5"/><text transform="matrix(1 0 0 1 -94 60.1572)"><tspan x="0" y="0" fill="#000000" font-family="'Helvetica-Bold'" font-size="3">Ungroup</tspan><tspan x="0" y="5" fill="#000000" font-family="'Helvetica'" font-size="2.4">If your design has more than one </tspan><tspan x="0" y="8" fill="#000000" font-family="'Helvetica'" font-size="2.4">shape, make sure to ungroup</tspan></text><rect x="-50" y="58" fill="none" width="35" height="32.5"/><text transform="matrix(1 0 0 1 -50 60.1572)"><tspan x="0" y="0" fill="#000000" font-family="'Helvetica-Bold'" font-size="3">Save as</tspan><tspan x="0" y="5" fill="#000000" font-family="'Helvetica'" font-size="2.4">Save as .SVG and make sure </tspan><tspan x="0" y="8" fill="#000000" font-family="'Helvetica'" font-size="2.4">“Use Artboards” is checked</tspan></text><text transform="matrix(1.0074 0 0 1 -125.542 30.5933)" fill="#000000" font-family="'Helvetica'" font-size="2.5731">100px</text><text transform="matrix(1.0074 0 0 1 -41 39)" fill="#000000" font-family="'Helvetica-Bold'" font-size="5.1462">.SVG</text><rect x="-126.514" y="34.815" fill="#000000" width="10.261" height="10.185"/><rect x="-126.477" y="31.766" fill="#000000" width="0.522" height="2.337"/><rect x="-116.812" y="31.766" fill="#000000" width="0.523" height="2.337"/><rect x="-127" y="32.337" fill="#000000" width="11.233" height="0.572"/><g><rect x="-83.805" y="33.844" fill="#000000" width="10.305" height="10.156"/><rect x="-76.809" y="28.707" fill="#000000" width="3.308" height="3.261"/></g><rect x="-178.5" y="22.5" fill="#000000" stroke="#FFFFFF" stroke-miterlimit="10" width="30" height="30"/><rect x="-136.5" y="22.5" fill="#000000" stroke="#FFFFFF" stroke-miterlimit="10" width="30" height="30"/><rect x="-93.5" y="22.5" fill="#000000" stroke="#FFFFFF" stroke-miterlimit="10" width="30" height="30"/><rect x="-49.5" y="22.5" fill="#000000" stroke="#FFFFFF" stroke-miterlimit="10" width="30" height="30"/></g><g><g><path d="M44.976,69.024c-0.305,0.458-0.916,1.832,0,3.816l7.633,11.145c0.916,0.916,1.832,3.206,0.306,5.19    c2.29,0.153,4.579,0.458,6.564,1.069c3.358,0.763,5.19,1.984,5.648,3.358v0.152v0.153c-0.306,3.663-4.886,4.121-8.396,4.427    c-0.61,0.152-1.222,0.152-1.832,0.306c-2.442,0.305-4.733,0.305-7.938,0.305h-0.916c-0.153,0-0.458,0-0.611,0    c-1.679,0-2.748,0-4.885,0c-4.427-0.305-7.175-1.221-8.702-1.984c-1.832-0.916-3.053-1.984-3.053-3.053    c0-0.611,0.305-1.222,0.916-1.68c2.443-2.138,11.45-2.9,14.351-2.748l0.458-0.61c0.611-0.611,0.916-1.374,0.916-1.984    c0.153-1.222-0.916-2.29-0.916-2.29h-0.153v-0.153l-6.564-10.991c-1.221-2.138-0.916-3.97-0.458-5.038    c0.153-0.458,0.306-0.764,0.458-0.764l6.412-13.739c-0.153-1.68-0.611-5.344-4.275-12.366c-0.152-0.305-0.458-0.61-0.61-1.068    c-0.305-0.458-0.458-0.916-0.458-0.916c-4.58-8.091-11.603-17.557-21.068-28.396c-0.61-0.306-1.068-0.764-1.374-1.374    c0,0,0-0.153-0.152-0.306L3.757,1.242L4.52,0.021l12.061,7.786c0.916-1.679,3.969-3.053,9.312-4.122    C31.847,2.463,39.786,1.7,48.182,1.7c8.396,0,16.335,0.763,22.136,1.984c6.564,1.222,9.771,3.053,9.771,5.191    c0,1.068-0.61,1.984-2.138,2.748c-6.259,7.328-25.189,30.38-25.8,43.204v0.152L44.976,69.024z M17.802,8.569l4.58,3.054    c1.374,0.458,2.9,0.763,5.038,1.221c5.648,1.068,12.976,1.526,20.762,1.526c8.244,0,16.03-0.61,21.831-1.832    c2.901-0.458,5.038-1.221,6.564-1.832c0.153-0.153,0.306-0.153,0.458-0.306c0.611-0.763,1.222-1.374,1.527-1.832    c-0.306-0.763-2.443-2.137-8.55-3.511C64.212,3.99,56.426,3.226,48.182,3.226c-8.244,0-16.03,0.764-21.984,1.832    c-2.748,0.611-4.885,1.374-6.412,1.985C18.718,7.653,17.955,8.111,17.802,8.569z M21.771,12.997c-0.152,0-0.458,0-0.61-0.152    c8.702,10.076,15.266,19.083,19.541,26.869c0.916,1.679,3.511,5.191,7.022,5.343c2.748,0.153,5.649-1.984,8.549-6.259    c2.29-3.969,5.19-8.396,8.702-13.282c3.663-5.038,7.175-9.465,9.923-12.519c-1.374,0.306-2.748,0.764-4.58,1.069    c-5.801,1.221-13.74,1.832-22.136,1.832c-7.786,0-15.267-0.458-21.068-1.527c-0.305-0.152-0.61-0.152-0.916-0.152l10.229,6.717    c1.222-1.069,2.748-1.68,4.58-1.68c1.527,0,2.9,0.306,4.274,0.916c4.275,1.832,6.564,5.801,5.191,8.854    c-0.153,0.306-0.306,0.458-0.458,0.764l8.396,5.343l-0.916,1.374l-8.549-5.648c-1.068,0.763-2.442,1.221-4.122,1.221    c-1.374,0-2.9-0.305-4.274-0.916c-1.984-0.916-3.664-2.138-4.58-3.817c-1.068-1.679-1.221-3.511-0.61-4.885    c0.152-0.153,0.152-0.305,0.152-0.458L21.771,12.997z M43.602,73.604c-1.526-3.054-0.152-5.19,0.153-5.648l6.87-13.435    c0.153-2.748,1.221-6.259,3.053-10.229c-1.984,1.526-3.816,2.29-5.648,2.29c-0.152,0-0.305,0-0.458,0    c-1.526,0-2.9-0.611-4.427-1.679c1.069,2.442,2.137,5.496,2.595,8.854c0,0,0,0.153,0,0.306v0.152l-7.022,14.809    c-0.305,0.764-0.458,2.138,0.306,3.664l6.564,10.992c0.305,0.305,1.526,1.526,1.374,3.206c0,1.068-0.458,2.137-1.374,3.053    l-3.053,3.358l-1.222-1.068l1.222-1.374c-3.359,0.152-10.076,1.068-11.908,2.596c0,0-0.305,0.305-0.305,0.458    c0,0.61,2.748,3.053,10.381,3.511c2.29,0,3.358,0,5.343,0h0.916c3.206,0,5.343,0,7.786-0.305c0.61-0.153,1.221-0.153,1.831-0.153    c3.817-0.458,6.718-0.916,7.023-3.053c-0.611-1.68-6.718-3.054-12.061-3.206l-2.901,2.595l-0.916-1.068l3.664-3.664    c1.68-1.679,0.153-3.358,0-3.664L43.602,73.604z"/></g></g><text x="0" y="115" fill="#000000" font-size="5px" font-weight="bold" font-family="'Helvetica Neue', Helvetica, Arial-Unicode, Arial, Sans-serif">Created by Christian Sexton</text><text x="0" y="120" fill="#000000" font-size="5px" font-weight="bold" font-family="'Helvetica Neue', Helvetica, Arial-Unicode, Arial, Sans-serif">from the Noun Project</text></svg>