<svg xmlns="http://www.w3.org/2000/svg" xmlns:xlink="http://www.w3.org/1999/xlink" version="1.1" x="0px" y="0px" viewBox="0 0 100 125" enable-background="new 0 0 100 100" xml:space="preserve"><path d="M79.423,0c-4.722,0.756-8.854,2.223-13.26,4.024C58.51,7.152,49.885,7.976,42.581,3.453  c-3.428-2.123-6.182-3.073-10.284-2.73c-4.741,0.396-9.476,0.487-14.23,0.521l0.019,0.24l-0.019,0.001l6.975,98.568l3.347-0.236  l-4.697-66.382c3.709-0.056,7.411-0.177,11.115-0.486c4.102-0.342,6.855,0.606,10.283,2.729c7.304,4.523,15.929,3.7,23.582,0.571  c4.405-1.801,8.538-3.267,13.26-4.023L79.423,0z"/><text x="0" y="115" fill="#000000" font-size="5px" font-weight="bold" font-family="'Helvetica Neue', Helvetica, Arial-Unicode, Arial, Sans-serif">Created by Ben Cunningham</text><text x="0" y="120" fill="#000000" font-size="5px" font-weight="bold" font-family="'Helvetica Neue', Helvetica, Arial-Unicode, Arial, Sans-serif">from the Noun Project</text></svg>