<svg xmlns:xlink="http://www.w3.org/1999/xlink" xmlns="http://www.w3.org/2000/svg" stroke-width="0.501" stroke-linejoin="bevel" fill-rule="evenodd" version="1.1" overflow="visible" viewBox="0 0 12 15" x="0px" y="0px"><g fill="none" stroke="black" font-family="Times New Roman" font-size="16" transform="scale(1 -1)"><g transform="translate(0 -12)"><g><path d="M 0,1.789 L 0,10.21 C 0,11.198 0.802,12 1.79,12 L 10.209,12 C 11.197,12 11.999,11.198 11.999,10.21 L 11.999,1.789 C 11.999,0.801 11.197,-0.001 10.209,-0.001 L 1.79,-0.001 C 0.802,-0.001 0,0.801 0,1.789 Z M 2.251,2.682 L 2.251,3.75 L 9.75,3.75 L 9.75,2.683 C 9.75,2.445 9.944,2.251 10.182,2.251 L 10.819,2.251 C 11.057,2.251 11.251,2.445 11.251,2.683 L 11.251,7.818 C 11.251,8.056 11.057,8.25 10.819,8.25 L 10.182,8.25 C 9.944,8.25 9.75,8.056 9.75,7.818 L 9.75,5.249 L 2.251,5.249 L 2.251,7.817 C 2.251,8.055 2.057,8.249 1.819,8.249 L 1.182,8.249 C 0.944,8.249 0.75,8.055 0.75,7.817 L 0.75,2.682 C 0.75,2.444 0.944,2.25 1.182,2.25 L 1.819,2.25 C 2.057,2.25 2.251,2.444 2.251,2.682 Z M 4.501,6.75 C 4.501,7.164 4.165,7.5 3.751,7.5 C 3.337,7.5 3.001,7.164 3.001,6.75 C 3.001,6.336 3.337,6 3.751,6 C 4.165,6 4.501,6.336 4.501,6.75 Z M 9.002,6.497 L 9.002,7.004 C 9.002,7.277 8.78,7.5 8.507,7.5 L 5.746,7.5 C 5.473,7.5 5.251,7.277 5.251,7.004 L 5.251,6.497 C 5.251,6.224 5.473,6.001 5.746,6.001 L 8.507,6.001 C 8.78,6.001 9.002,6.224 9.002,6.497 Z" fill="#000000" stroke="none" stroke-width="0.75" stroke-linejoin="miter" stroke-linecap="round" marker-start="none" marker-end="none" stroke-miterlimit="79.8403193612775"/></g></g></g><text x="0" y="27" fill="#000000" font-size="5px" font-weight="bold" font-family="'Helvetica Neue', Helvetica, Arial-Unicode, Arial, Sans-serif">Created by Denis Sazhin</text><text x="0" y="32" fill="#000000" font-size="5px" font-weight="bold" font-family="'Helvetica Neue', Helvetica, Arial-Unicode, Arial, Sans-serif">from the Noun Project</text></svg>