<svg xmlns="http://www.w3.org/2000/svg" xmlns:xlink="http://www.w3.org/1999/xlink" version="1.1" x="0px" y="0px" viewBox="0 0 100 100" enable-background="new 0 0 100 100" xml:space="preserve"><path d="M50,6C25.7,6,6,25.699,6,49.999c0,24.301,19.7,44,44,44s44-19.699,44-44C94,25.699,74.3,6,50,6z M62.526,75.721  c-2.795,0.704-5.635,1.061-8.439,1.061c-6.011,0-10.846-1.837-14.37-5.459c-3.393-3.488-5.232-8.369-5.469-14.517h-3.915  c-1.104,0-2-0.896-2-2s0.896-2,2-2H60.77c1.104,0,2,0.896,2,2s-0.896,2-2,2H38.251c0.221,5.055,1.677,8.998,4.333,11.728  c2.781,2.858,6.543,4.248,11.503,4.248c2.476,0,4.986-0.316,7.463-0.939c1.071-0.266,2.158,0.38,2.428,1.451  S63.598,75.451,62.526,75.721z M64.05,27.723c-0.619,0.915-1.862,1.154-2.777,0.535c-0.89-0.603-3.925-1.04-7.218-1.04  c-4.857,0-8.57,1.362-11.353,4.163c-2.654,2.672-4.146,6.525-4.441,11.458h22.51c1.104,0,2,0.896,2,2s-0.896,2-2,2H30.333  c-1.104,0-2-0.896-2-2s0.896-2,2-2h3.921c0.317-6.045,2.204-10.846,5.61-14.276c3.521-3.546,8.296-5.345,14.19-5.345  c2.58,0,7.24,0.225,9.46,1.727C64.43,25.565,64.669,26.808,64.05,27.723z"></path></svg>